<svg id="visual" viewBox="0 0 900 600" width="900" height="600" xmlns="http://www.w3.org/2000/svg" xmlns:xlink="http://www.w3.org/1999/xlink" version="1.1"><rect x="0" y="0" width="900" height="600" fill="#001220"></rect><path d="M0 378L21.5 386.3C43 394.7 86 411.3 128.8 410.3C171.7 409.3 214.3 390.7 257.2 392.5C300 394.3 343 416.7 385.8 421.5C428.7 426.3 471.3 413.7 514.2 409.7C557 405.7 600 410.3 642.8 413.2C685.7 416 728.3 417 771.2 414.8C814 412.7 857 407.3 878.5 404.7L900 402L900 601L878.5 601C857 601 814 601 771.2 601C728.3 601 685.7 601 642.8 601C600 601 557 601 514.2 601C471.3 601 428.7 601 385.8 601C343 601 300 601 257.2 601C214.3 601 171.7 601 128.8 601C86 601 43 601 21.5 601L0 601Z" fill="#4facf7"></path><path d="M0 415L21.5 417.7C43 420.3 86 425.7 128.8 430.7C171.7 435.7 214.3 440.3 257.2 446C300 451.7 343 458.3 385.8 457.7C428.7 457 471.3 449 514.2 450.5C557 452 600 463 642.8 457.3C685.7 451.7 728.3 429.3 771.2 416.3C814 403.3 857 399.7 878.5 397.8L900 396L900 601L878.5 601C857 601 814 601 771.2 601C728.3 601 685.7 601 642.8 601C600 601 557 601 514.2 601C471.3 601 428.7 601 385.8 601C343 601 300 601 257.2 601C214.3 601 171.7 601 128.8 601C86 601 43 601 21.5 601L0 601Z" fill="#0babdf"></path><path d="M0 495L21.5 495.5C43 496 86 497 128.8 489.7C171.7 482.3 214.3 466.7 257.2 463.2C300 459.7 343 468.3 385.8 478.2C428.7 488 471.3 499 514.2 502.5C557 506 600 502 642.8 499.3C685.7 496.7 728.3 495.3 771.2 493.5C814 491.7 857 489.3 878.5 488.2L900 487L900 601L878.5 601C857 601 814 601 771.2 601C728.3 601 685.7 601 642.8 601C600 601 557 601 514.2 601C471.3 601 428.7 601 385.8 601C343 601 300 601 257.2 601C214.3 601 171.7 601 128.8 601C86 601 43 601 21.5 601L0 601Z" fill="#00a6c1"></path><path d="M0 484L21.5 492C43 500 86 516 128.8 523.8C171.7 531.7 214.3 531.3 257.2 529.2C300 527 343 523 385.8 516.7C428.7 510.3 471.3 501.7 514.2 499C557 496.3 600 499.7 642.8 505.2C685.7 510.7 728.3 518.3 771.2 523.3C814 528.3 857 530.7 878.5 531.8L900 533L900 601L878.5 601C857 601 814 601 771.2 601C728.3 601 685.7 601 642.8 601C600 601 557 601 514.2 601C471.3 601 428.7 601 385.8 601C343 601 300 601 257.2 601C214.3 601 171.7 601 128.8 601C86 601 43 601 21.5 601L0 601Z" fill="#009f9e"></path><path d="M0 535L21.5 534.7C43 534.3 86 533.7 128.8 537.2C171.7 540.7 214.3 548.3 257.2 548.2C300 548 343 540 385.8 537.3C428.7 534.7 471.3 537.3 514.2 540.3C557 543.3 600 546.7 642.8 547C685.7 547.3 728.3 544.7 771.2 541.8C814 539 857 536 878.5 534.5L900 533L900 601L878.5 601C857 601 814 601 771.2 601C728.3 601 685.7 601 642.8 601C600 601 557 601 514.2 601C471.3 601 428.7 601 385.8 601C343 601 300 601 257.2 601C214.3 601 171.7 601 128.8 601C86 601 43 601 21.5 601L0 601Z" fill="#009473"></path></svg>