<svg id="visual" viewBox="0 0 900 600" width="900" height="600" xmlns="http://www.w3.org/2000/svg" xmlns:xlink="http://www.w3.org/1999/xlink" version="1.1"><path d="M0 25L50 25L100 25L150 25L200 25L250 25L300 31L350 31L400 31L450 25L500 25L550 31L600 25L650 25L700 25L750 25L800 25L850 25L900 31L900 0L850 0L800 0L750 0L700 0L650 0L600 0L550 0L500 0L450 0L400 0L350 0L300 0L250 0L200 0L150 0L100 0L50 0L0 0Z" fill="#c62368"></path><path d="M0 43L50 43L100 49L150 43L200 43L250 49L300 55L350 49L400 55L450 43L500 43L550 55L600 49L650 43L700 43L750 49L800 43L850 43L900 55L900 29L850 23L800 23L750 23L700 23L650 23L600 23L550 29L500 23L450 23L400 29L350 29L300 29L250 23L200 23L150 23L100 23L50 23L0 23Z" fill="#b1256e"></path><path d="M0 97L50 91L100 103L150 109L200 91L250 91L300 115L350 109L400 103L450 91L500 85L550 115L600 97L650 97L700 97L750 91L800 103L850 91L900 97L900 53L850 41L800 41L750 47L700 41L650 41L600 47L550 53L500 41L450 41L400 53L350 47L300 53L250 47L200 41L150 41L100 47L50 41L0 41Z" fill="#9b2872"></path><path d="M0 139L50 127L100 145L150 145L200 127L250 133L300 145L350 151L400 145L450 139L500 133L550 157L600 127L650 145L700 139L750 127L800 139L850 121L900 139L900 95L850 89L800 101L750 89L700 95L650 95L600 95L550 113L500 83L450 89L400 101L350 107L300 113L250 89L200 89L150 107L100 101L50 89L0 95Z" fill="#842c72"></path><path d="M0 169L50 151L100 169L150 175L200 157L250 163L300 175L350 175L400 175L450 169L500 163L550 187L600 157L650 169L700 163L750 151L800 169L850 151L900 169L900 137L850 119L800 137L750 125L700 137L650 143L600 125L550 155L500 131L450 137L400 143L350 149L300 143L250 131L200 125L150 143L100 143L50 125L0 137Z" fill="#6d2d6f"></path><path d="M0 289L50 289L100 265L150 289L200 283L250 295L300 307L350 259L400 307L450 307L500 295L550 301L600 253L650 271L700 271L750 265L800 259L850 289L900 301L900 167L850 149L800 167L750 149L700 161L650 167L600 155L550 185L500 161L450 167L400 173L350 173L300 173L250 161L200 155L150 173L100 167L50 149L0 167Z" fill="#562e6a"></path><path d="M0 319L50 313L100 289L150 319L200 313L250 319L300 331L350 295L400 331L450 331L500 325L550 331L600 277L650 295L700 295L750 295L800 295L850 319L900 331L900 299L850 287L800 257L750 263L700 269L650 269L600 251L550 299L500 293L450 305L400 305L350 257L300 305L250 293L200 281L150 287L100 263L50 287L0 287Z" fill="#402c61"></path><path d="M0 349L50 355L100 325L150 349L200 355L250 349L300 361L350 331L400 367L450 361L500 355L550 367L600 307L650 337L700 325L750 325L800 325L850 349L900 361L900 329L850 317L800 293L750 293L700 293L650 293L600 275L550 329L500 323L450 329L400 329L350 293L300 329L250 317L200 311L150 317L100 287L50 311L0 317Z" fill="#2c2957"></path><path d="M0 391L50 391L100 373L150 397L200 403L250 403L300 409L350 379L400 409L450 415L500 403L550 415L600 361L650 379L700 373L750 379L800 373L850 385L900 409L900 359L850 347L800 323L750 323L700 323L650 335L600 305L550 365L500 353L450 359L400 365L350 329L300 359L250 347L200 353L150 347L100 323L50 353L0 347Z" fill="#1b254a"></path><path d="M0 409L50 409L100 391L150 421L200 421L250 427L300 433L350 397L400 433L450 433L500 421L550 433L600 385L650 397L700 397L750 403L800 397L850 409L900 433L900 407L850 383L800 371L750 377L700 371L650 377L600 359L550 413L500 401L450 413L400 407L350 377L300 407L250 401L200 401L150 395L100 371L50 389L0 389Z" fill="#0d1f3d"></path><path d="M0 541L50 523L100 535L150 541L200 523L250 529L300 535L350 535L400 535L450 541L500 529L550 529L600 529L650 541L700 523L750 529L800 529L850 511L900 541L900 431L850 407L800 395L750 401L700 395L650 395L600 383L550 431L500 419L450 431L400 431L350 395L300 431L250 425L200 419L150 419L100 389L50 407L0 407Z" fill="#04192e"></path><path d="M0 601L50 601L100 601L150 601L200 601L250 601L300 601L350 601L400 601L450 601L500 601L550 601L600 601L650 601L700 601L750 601L800 601L850 601L900 601L900 539L850 509L800 527L750 527L700 521L650 539L600 527L550 527L500 527L450 539L400 533L350 533L300 533L250 527L200 521L150 539L100 533L50 521L0 539Z" fill="#001220"></path></svg>