<svg id="visual" viewBox="0 0 900 600" width="900" height="600" xmlns="http://www.w3.org/2000/svg" xmlns:xlink="http://www.w3.org/1999/xlink" version="1.1"><path d="M0 145L82 199L164 265L245 175L327 133L409 259L491 115L573 163L655 85L736 121L818 127L900 169L900 0L818 0L736 0L655 0L573 0L491 0L409 0L327 0L245 0L164 0L82 0L0 0Z" fill="#0a0382"></path><path d="M0 283L82 307L164 319L245 301L327 253L409 331L491 283L573 223L655 217L736 229L818 271L900 295L900 167L818 125L736 119L655 83L573 161L491 113L409 257L327 131L245 173L164 263L82 197L0 143Z" fill="#0d0394"></path><path d="M0 415L82 433L164 409L245 439L327 427L409 445L491 493L573 469L655 433L736 397L818 457L900 397L900 293L818 269L736 227L655 215L573 221L491 281L409 329L327 251L245 299L164 317L82 305L0 281Z" fill="#1102a6"></path><path d="M0 493L82 487L164 493L245 487L327 523L409 493L491 547L573 511L655 493L736 487L818 559L900 499L900 395L818 455L736 395L655 431L573 467L491 491L409 443L327 425L245 437L164 407L82 431L0 413Z" fill="#1501b9"></path><path d="M0 601L82 601L164 601L245 601L327 601L409 601L491 601L573 601L655 601L736 601L818 601L900 601L900 497L818 557L736 485L655 491L573 509L491 545L409 491L327 521L245 485L164 491L82 485L0 491Z" fill="#1900cc"></path></svg>