<svg id="visual" viewBox="0 0 960 540" width="960" height="540" xmlns="http://www.w3.org/2000/svg" xmlns:xlink="http://www.w3.org/1999/xlink" version="1.1"><rect x="0" y="0" width="960" height="540" fill="#001220"></rect><path d="M0 343L12.3 355.3C24.7 367.7 49.3 392.3 74 395.2C98.7 398 123.3 379 148 367.7C172.7 356.3 197.3 352.7 221.8 357.7C246.3 362.7 270.7 376.3 295.2 377.8C319.7 379.3 344.3 368.7 369 366.5C393.7 364.3 418.3 370.7 443 379.7C467.7 388.7 492.3 400.3 517 398.8C541.7 397.3 566.3 382.7 591 378.5C615.7 374.3 640.3 380.7 664.8 376.7C689.3 372.7 713.7 358.3 738.2 357.2C762.7 356 787.3 368 812 371.5C836.7 375 861.3 370 886 370C910.7 370 935.3 375 947.7 377.5L960 380L960 541L947.7 541C935.3 541 910.7 541 886 541C861.3 541 836.7 541 812 541C787.3 541 762.7 541 738.2 541C713.7 541 689.3 541 664.8 541C640.3 541 615.7 541 591 541C566.3 541 541.7 541 517 541C492.3 541 467.7 541 443 541C418.3 541 393.7 541 369 541C344.3 541 319.7 541 295.2 541C270.7 541 246.3 541 221.8 541C197.3 541 172.7 541 148 541C123.3 541 98.7 541 74 541C49.3 541 24.7 541 12.3 541L0 541Z" fill="#fa7268"></path><path d="M0 391L12.3 394C24.7 397 49.3 403 74 404.8C98.7 406.7 123.3 404.3 148 400.2C172.7 396 197.3 390 221.8 392.7C246.3 395.3 270.7 406.7 295.2 408.8C319.7 411 344.3 404 369 409.5C393.7 415 418.3 433 443 433C467.7 433 492.3 415 517 404.7C541.7 394.3 566.3 391.7 591 400.7C615.7 409.7 640.3 430.3 664.8 440.2C689.3 450 713.7 449 738.2 446C762.7 443 787.3 438 812 433.5C836.7 429 861.3 425 886 427.7C910.7 430.3 935.3 439.7 947.7 444.3L960 449L960 541L947.7 541C935.3 541 910.7 541 886 541C861.3 541 836.7 541 812 541C787.3 541 762.7 541 738.2 541C713.7 541 689.3 541 664.8 541C640.3 541 615.7 541 591 541C566.3 541 541.7 541 517 541C492.3 541 467.7 541 443 541C418.3 541 393.7 541 369 541C344.3 541 319.7 541 295.2 541C270.7 541 246.3 541 221.8 541C197.3 541 172.7 541 148 541C123.3 541 98.7 541 74 541C49.3 541 24.7 541 12.3 541L0 541Z" fill="#eb5967"></path><path d="M0 490L12.3 487.5C24.7 485 49.3 480 74 470.5C98.7 461 123.3 447 148 442C172.7 437 197.3 441 221.8 441.8C246.3 442.7 270.7 440.3 295.2 440.7C319.7 441 344.3 444 369 442.2C393.7 440.3 418.3 433.7 443 434.7C467.7 435.7 492.3 444.3 517 452.7C541.7 461 566.3 469 591 470.5C615.7 472 640.3 467 664.8 460.2C689.3 453.3 713.7 444.7 738.2 442C762.7 439.3 787.3 442.7 812 445.8C836.7 449 861.3 452 886 449.5C910.7 447 935.3 439 947.7 435L960 431L960 541L947.7 541C935.3 541 910.7 541 886 541C861.3 541 836.7 541 812 541C787.3 541 762.7 541 738.2 541C713.7 541 689.3 541 664.8 541C640.3 541 615.7 541 591 541C566.3 541 541.7 541 517 541C492.3 541 467.7 541 443 541C418.3 541 393.7 541 369 541C344.3 541 319.7 541 295.2 541C270.7 541 246.3 541 221.8 541C197.3 541 172.7 541 148 541C123.3 541 98.7 541 74 541C49.3 541 24.7 541 12.3 541L0 541Z" fill="#da3f67"></path><path d="M0 524L12.3 516C24.7 508 49.3 492 74 487C98.7 482 123.3 488 148 496.3C172.7 504.7 197.3 515.3 221.8 513.5C246.3 511.7 270.7 497.3 295.2 496.2C319.7 495 344.3 507 369 507.8C393.7 508.7 418.3 498.3 443 492.3C467.7 486.3 492.3 484.7 517 481.5C541.7 478.3 566.3 473.7 591 478.7C615.7 483.7 640.3 498.3 664.8 499.2C689.3 500 713.7 487 738.2 485.3C762.7 483.7 787.3 493.3 812 500.7C836.7 508 861.3 513 886 516C910.7 519 935.3 520 947.7 520.5L960 521L960 541L947.7 541C935.3 541 910.7 541 886 541C861.3 541 836.7 541 812 541C787.3 541 762.7 541 738.2 541C713.7 541 689.3 541 664.8 541C640.3 541 615.7 541 591 541C566.3 541 541.7 541 517 541C492.3 541 467.7 541 443 541C418.3 541 393.7 541 369 541C344.3 541 319.7 541 295.2 541C270.7 541 246.3 541 221.8 541C197.3 541 172.7 541 148 541C123.3 541 98.7 541 74 541C49.3 541 24.7 541 12.3 541L0 541Z" fill="#c62368"></path></svg>